<svg id="Layer_1" xmlns="http://www.w3.org/2000/svg" viewBox="0 0 1200 724" width="1500" height="800"><style>.st0{fill:#fff}.st1{fill:#262222}.st2{fill:#fbd150}.st3{fill:#cf1c43}</style> <g id="Layer_1_1_"> <path class="st1" d="M359.5 298.5h328.1c-1.4 44.5-1.1 89.2-6.1 133.6-4.8 44.3-15.4 88.5-35.5 128.5-8.6 17.1-18.3 33.7-30.3 48.7-24.4 30.5-56.9 53.8-92.2 70-32.6-14.9-62.8-35.8-86.4-62.9-14.4-16.4-25.8-35.2-35.6-54.6-19.4-38.1-30.1-80.1-35.2-122.3-5.7-46.8-5.8-94-6.8-141z"/><path class="st2" d="M366 305h314.8c-1 47.1-1.2 94.4-7.7 141.1-3.1 22.1-7.7 44-14.4 65.2-45-35.6-89.9-71.4-134.9-107-45.1 35.8-90.3 71.6-135.4 107.4-13.4-42.2-18.2-86.6-20.1-130.7-1.4-25.3-1.6-50.7-2.3-76z"/><path class="st3" d="M649.5 315c6.9-2.7 15.8 2.4 16.2 10 .6 7-3.8 12.8-6.2 19-2.3 5.8-5.2 11.9-4.5 18.3 2.6-3.1 4.5-6.7 6.9-10-.8 3.9-1.7 7.7-1.9 11.7-.2 5.4.7 10.7 1 16 .6 4.8-4.8 8.1-4 12.9 1.2 7.8 5.1 15.1 4.6 23.1-.1 4.4-2.5 8.7-6.1 11.2-3.1 2.1-7 2-10.5 2.6.2 2.6-.1 5.2.8 7.7 2.3 4.1 7.8 4.9 10.4 8.5.4 7.5-4.7 13.9-5.6 21.1-.4 3.5-1.7 6.7-3.2 9.8-1.4-1.7-2-5.6-5-4.7-2.5.9-3.9 3.5-6.2 4.8-2.4.5-5 .2-7.4.2.5-2.4 1-4.9 1.7-7.2-2.3-.1-4.5-.2-6.8-.5-.2-2-.3-4.4 1.3-5.9 1.9-1.1 4.2-1.1 6.3-1.6-2-1.1-4.1-2.1-6.2-3 1.1-1.7 1.9-3.6 3.5-4.8 1.9-1 5-.9 5.9 1.4 1.4 3 2.1 6.5 4.7 8.8 3.7-3.2 6.4-8.1 5.7-13.1-1.4-4.1-5.5-6.9-9.6-7.5-6.2-.5-13.1 2.4-18.6-1.4-4.9-4.1-4.6-11.8-2.1-17.1 2.2-4.5 7.6-5.5 12-6.7-4.9-9.8-13.9-16.1-22.1-22.9-4.9-3.9-4.2-10.9-2.6-16.1 2.1 1.4 4.1 2.9 6 4.4 2.7-3 5.3-6.5 9.3-7.6 4.2-1.2 8.5 0 12.5 1.2-1.9 13.4 2.2 27.6 11.1 37.8 1.9 2.1 2.9 4.7 3.9 7.3.4 2 2.8 2.1 4.5 2 4.6-.5 8.3-5.1 8-9.8 0-4.6-.5-9.4-2.6-13.4-.8-1.6-2.9-3.1-4.7-1.9-2.6 1.3-3.3 4.4-4.6 6.8-1.8-3.7-4.5-8.2-1.9-12.2 1.7-3.5 5.9-2.3 8.9-1.8-1.4-9.6-4.4-19.3-2.6-29 1.9-8.8 4.5-17.4 5.3-26.4.8-4.1-4.4-6.9-7.7-4.9-2.5 1.3-2.1 4.5-2.2 6.9.1 5-.4 10-1.4 15-1.2-8.6-4.8-17-4-25.9.8-5.6 4.5-11 9.8-13.1zM454.5 320.2c1.9-.6 3.5-1.9 5.2-3 .3 1.5.7 3.1.8 4.7-1.1 1.8-2.6 3.3-3.6 5.2-.2 3.9 1.9 8.6-1.6 11.7-6.6 7.4-17.5 5.2-26.2 6.7-.2-.7-.6-2.1-.9-2.8 3-.4 6.3-.2 8.8-2.1 3.1-3.6 3.6-10.6-1.2-13.1-3.8-1.5-7.6.8-11.3 1.5.9-1.9 1.4-4.5 3.7-5.2 4.4-1.7 8.8-3.2 13.1-4.9 4.5-1.9 8.8 1.5 13.2 1.3zM609.7 319.2c4.5-2.5 9.1.9 13.4 2.2 3.5 1.6 7.1-.2 10.4-1.4 0 1.7.1 3.3.2 5-1.4 1.3-3 2.5-4.2 4-2.1 3.3-1.8 8.2-5.5 10.4-3.1 1.6-6.1 3.3-9.3 4.6-5.3 1.5-11 .7-16.3-.5.3-.7.6-1.4.9-2.2 2.8-.3 6.2.1 8.2-2.3 3-2.9 2.5-8 .2-11.1-.9-1.3-2.7-1.1-4.1-.9-2.9.5-5.7 1.2-8.5 1.8.7-2 .8-5.2 3.6-5.6 3.7-1 7.5-2 11-4zM380.1 321.5c2.3-1 4.6-3.1 7.3-2.2 3.1.6 3.3 4.2 4.3 6.6.8.5 1.6 1 2.3 1.5.2-3.1 1.4-5.9 3.1-8.4 1.9 1.7 5.1 3.1 4.9 6.1-.1 4.6-.6 9.5 1.6 13.8 4.8 9.9 15.4 15.5 25.7 17.9-2 2.8-3.7 5.7-5.3 8.7-2.9-.1-5.8-.1-8.7-.1-.3-1.1-.7-2.1-1-3.2-2.7-1.3-5.5-2.3-8.1-3.9-2.9-2-3.3-5.9-5.6-8.5-1.5-1.2-3.4-1.7-5.1-2.4 0-1.8.3-3.9-1.1-5.4-2.6-3.8-7.4-4.6-11.5-5.5-.5-.9-1-1.7-1.5-2.6-.7-.3-2-.8-2.7-1.1 2.4-1.7 5-3.1 7.7-4.5-3.2-1.1-5.3-3.6-6.3-6.8z"/><path class="st2" d="M437.9 326.2c1.3-1.6 2.3-4.1 4.6-4.6 2.1.3 4.2 1.5 4.8 3.7-3 1.2-6.2 1.3-9.4.9z"/><path class="st3" d="M497.9 326.5c6.6-5.1 15.6-6 23.4-3.4 8.4 2.7 16.6 6.5 25.6 6.4-3.3 5.2-8.6 8.7-14.4 10.5-4.8 1.2-9.6 0-14.4-.2 1.6 2.7 3 5.6 3.9 8.6-5.6-4-12.2-7.8-19.4-6.3-6.2 1.4-9.5 7.6-11.7 12.9-1.7 3.9-1.2 8.2.4 12 1.5-5.1 6.1-7.7 9.3-11.5 1.2 1.6 3.2 3 3 5.3-.1 3.5-3.6 5.4-5.2 8.2.2 3.7 2 7.5.6 11.2-2.7 8-3.1 17.5-9.5 23.6-3.2 3.4-8 3.9-12.3 4-1.2 3.6-2.5 7.6-5.9 9.8-3.8 2.7-8.6 1.5-12.9 1.4 1.9 5.9 7 9.6 11.5 13.5-7.3 3.6-14.8 7.1-20.8 12.7-3.6 3.3-5.6 7.9-8.6 11.6-1.2-1.5-2.5-2.9-3.8-4.3-2.6 2.8-4.8 5.9-7.6 8.5-1.1-.4-2.1-.8-3.2-1.2-.6.4-1.9 1.2-2.5 1.6-.3-1.5-.8-3.1-.9-4.6.8-2.1 2.3-3.8 3.5-5.7-1.8.3-3.7.7-5.5 1.1-.8-1.7-2.4-3.6-1-5.5 1.4-3.7 6.5-2.8 8.3-6.2-1 .2-3 .5-4 .7.5-3.1 2-6.9 5.8-6.3 3.8 1.8 7.2 5.7 11.9 4.3 4.7-1.3 9.8-3.4 12.7-7.4-.1-.5-.4-1.5-.5-2-5.6-2.3-12.5-2.4-16.7-7.5-5.2-5.1-2.8-14.7 3.7-17.5 4.3-2.4 9.2-1 13.6 0-3.9-8-14.6-6.7-20-12.9-1.5-1.7-.5-4.2 1.2-5.3 4.7-3.4 10.8-2.5 16.2-3.2 3.5-.2 6.7-1.5 9.8-3 2.3 7.2 5.3 14.8 11.5 19.6 2.8 2.2 6.7 4.2 10.3 2.4 5.1-2.6 8.1-8.3 8.6-13.8.4-3.3-1.8-6.4-4.8-7.5-2.7-1.3-5.6-.1-8.3.6.7-2.5.7-6 3.6-7.1 2.6-.9 5.4-.7 8-1.1-4.2-7.1-8.2-15.3-6.6-23.9 1.8-8.7 6.8-17.3 14.1-23.1z"/><path class="st2" d="M607.7 326.2c.9-1.8 1.2-4.7 3.8-4.7 2.3.3 4.4 1.3 6.6 2.2-3.3 1.3-6.8 2.2-10.4 2.5z"/><path class="st3" d="M570.4 322.4c2.6 1 6.2 1.7 7.1 4.8.5 4.1-.4 8.8 2.6 12.1 5.4 6.6 14 9.2 20.2 14.7-2.3 2.6-4.4 5.2-6.4 8-4.2-3.5-9.1-6.4-14.7-6.7.7-.9 1.5-1.8 2.2-2.7-2.3-3.7-5.3-7-9.3-8.7-1.6 1.6-3.1 3.4-5 4.7-2.3.2-4.5-.1-6.8-.1.6-2.8 1.4-5.6 2.6-8.2 1.7-.4 3.4-.8 5-1.2-3.7-1-6.9-3.1-9.5-5.7 1.8-1.4 3.3-4.5 6-3.6 1.5.3 2.9.8 4.4 1.3.5-2.9 1.2-5.8 1.6-8.7zM461.8 327.6c4.7 6.9 7.8 15.1 7.4 23.5-.4 6.6-4.6 12.3-4.8 19-.2 3 1.5 5.6 2.8 8.3-3.4-.7-6.6-1.8-9.8-3 0 1.8.1 3.6.1 5.4-2.3-1.6-4.6-3.2-6.9-4.7-3.5 2.4-7 5.2-11.2 6.2-3.1.9-6.4.7-9.6 1.5-1.5 1-2.5 2.6-3.7 3.9-1-7.9-.6-16.4 3.2-23.6 5.4-8.8 15.9-11.6 24-17 6.4-4.5 8.3-12.4 8.5-19.5zM583.8 331.4c4.3.7 8.6.2 12.8-.6 3.4-.8 6.4 1.2 9.1 3.1-4.3 1.5-8.4 4.4-13.2 3.5-3.8-.4-6.3-3.3-8.7-6zM633.3 331.6c1.8 3.9 3.3 8 3.2 12.3-.2 10.6-5.2 20.6-4.1 31.2-4.3-2.2-9.1-3.8-13.9-2.8-4.2.4-7.7 3.1-10.8 5.8-4-2.8-8.7-4.2-13-6.2-1-6.1 4.4-10.6 8.3-14.4 6.6-6.7 16.2-8.8 23.1-15 3.4-2.8 5.2-7 7.2-10.9zM411 335.7c5.3-.4 10.3-2.2 15.6-2.5 3.7-.3 6.3 2.6 8.7 5-5.6.5-11.2 2-16.8 1.5-3.1-.2-5.3-2.3-7.5-4zM560.7 355.6c2.3.8 5.4.9 6.7 3.4 2.1 4 2.1 8.8 4.2 12.8 1.4 2.8 3.9 5.1 7 6.1 6.1 2 12.4 3.3 18.8 3.8-1.2 5.9-.9 12.4 3.1 17.2-5.6-2.7-12-3.8-16.7-8.1-3.3-3-7.4-4.8-11.8-5.8.2-1.4.3-2.8.5-4.2-2.7.1-6.1-1.1-8.1 1.2-2.6 2.8-5.7 5-9.1 6.5-.7-2.5-2-4.9-1.7-7.5 1.1-2.6 4.2-3.6 6.3-5.2-2-2.5-4.8-.7-7.3-.2-2-.5-3.9-1.5-5.8-2.2.7-2.6.9-6.1 3.7-7.3 4.1-2.1 8 1.3 11.4 3.3-1.4-2.4-3.2-4.7-3.9-7.4.4-2.3 1.8-4.3 2.7-6.4zM382.1 358.3c2.3-.2 4.7-1 6.9.2 4.5 2.4 4.2 8.9 8.8 11.1 7.4 3.8 16.3 5.5 24.3 2.2-.5 3.9-.4 7.7-.2 11.6-5.7.9-11-1.5-16.4-2.9-3.1.2-5.7 2.5-8.6 3.7-.5-1.7-.2-3.9-1.7-5-2.6-.7-4.4 1.6-6.3 2.8-1.9.2-3.8.5-5.8.8-1-3.4.7-6.4 1.4-9.6-2-1.1-4.4-1.1-6.6-1.3.2-1.6.3-3.2 1-4.7 1.5-1.5 3.7-1.8 5.6-2.5-.9-2.1-1.6-4.2-2.4-6.4zM417.9 403.1c.9-3.6 3.7-7.4 7.7-7.7 5-.5 9.1 3.2 12.8 5.9-3.8 2.3-7.5 5.2-8.7 9.7-1.4 3.6-.4 7.4.8 10.9-7.3-1.5-14.5 1.4-20.5 5.4 1.1-2.3 1.7-5.4-1.1-6.8-2.7-2.2-4.5 1.3-6.1 3.1-1.5 2.5-4.8 2.3-7.3 3-.5-.5-1.6-1.3-2.2-1.8-.1-1.1-.2-2.3-.3-3.4l2.1-3.9c-2.3.6-4.8 1.2-6.1 3.5-2.3-1.8-4.7-4.4-3.1-7.5 1.9-4.4 7.3-2.9 11-2.3-2.1-2.2-4.1-4.5-6.2-6.8 1.5-3.6 5.5-5.5 9.2-3.8 4.2 1.5 3.8 6.7 5.1 10.2.5 2.6 3.4 3.3 5.6 3.9 2.7.8 5.9.3 7.9-1.9.3-3.3-.9-6.4-.6-9.7zM602.6 412.1c1.6-3.4 6.2-4.2 9.3-2.4 3 1.4 4.5 4.4 5.9 7.1-3 2.8-6.6 5.4-8.2 9.3-1.5 3.3-1 7-.8 10.5-6.5-2-12.9.2-18.9 2.8-2.4-2.9-6-3.7-9.5-2.8-.3.8-.8 2.4-1.1 3.2-1.3-1.2-2.7-2.3-3.8-3.7.2-2.2.9-4.4 1.3-6.5-.6.6-1.8 1.9-2.3 2.5-1.8-1.5-4.3-2.5-4.8-5 .6-4.1 5.8-3.9 7.6-7.2-1.2 0-3.7.1-4.9.2 1.3-2.2 2-5.5 5-5.9 2.4-.4 5.9.1 6.7 2.9 1.6 4.3 2.8 9.6 7.3 11.9 3.1 2.2 7.9.8 9.2-2.8 1.7-4.5 0-9.7 2-14.1z"/><path class="st0" d="M395 530.8c42.9-34 85.8-68 128.7-102.1 42.7 33.9 85.4 67.9 128.2 101.8-3.2 8.4-6.8 16.7-10.7 24.8-39.2-31.1-78.3-62.2-117.5-93.2-39.3 31.2-78.6 62.4-118 93.5-3.8-8.2-7.5-16.4-10.7-24.8z"/><path class="st2" d="M414.9 572.8c36.2-28.8 72.6-57.5 108.9-86.4 36.1 28.7 72.3 57.4 108.4 86.1-7.5 13.2-15.7 26-25.6 37.4-22.5 26.6-51.7 47.1-83 62.1-31.2-14.7-60.1-35.1-82.7-61.4-10.1-11.5-18.5-24.5-26-37.8z"/><path class="st3" d="M537.5 513c2.8.2 5.1-1.6 7.4-2.8-.6 2.5-1.7 4.8-3.5 6.7-3.2 3.2-2.2 9.1-6.6 11.3-8 4.4-16.4 8.5-25.6 9.3.6-4.2 6.2-3.8 7.4-7.6.6-3.1 0-6.7-2.2-9-2.8-.7-5.4 1.1-8.1 1.7 1-1.6 1.6-3.5 3.1-4.7 2.1-1.4 4.7-1.7 7-2.2 2.1-1.9 4-4.4 7-4.6 4.8-.6 9.3 1.6 14.1 1.9z"/><path class="st2" d="M522.3 519.2c-2-2-.3-4 1.7-5.1 2.2.6 4.5 1.2 6.7 1.8-2.6 1.4-5.3 2.9-8.4 3.3z"/><path class="st3" d="M544.2 520.6c1.5 2.2 3.2 4.5 3.2 7.3.7 11.2-3.9 21.9-3.2 33.1 0 4 1.5 7.7 3 11.3-2.2-1.1-4.2-2.5-6.6-2.9-1.4 1.4-2.5 3-3.6 4.5-5.5-3.5-10.9-8.5-11.5-15.4-4.2 2.5-9 3.5-13.8 4.3.6-2.1 1.3-4.2 1.9-6.4-3.6.5-6.6 2.5-9.5 4.5 2-9.1 7.1-18.6 16.4-21.9 6.2-2.1 12.7-4 17.6-8.6 3-2.5 4.5-6.2 6.1-9.8zM494.8 526.2c5 .9 9.7-1.4 14.6-1.8 2.1.7 3.9 2.2 5.7 3.5-4.5 1.3-8.9 3.3-13.7 3.1-3-.2-4.7-2.9-6.6-4.8zM486.8 535c.4-2 1.5-3.9 2.3-5.8 1.9 1 4.1 1.9 5.7 3.4 2.5 3 .2 8 3.6 10.5 2.2 1.7 5 2.1 7.6 2.8-1.4 2.5-2.4 5.3-4.1 7.6-3.2 1.7-6.9 2.1-10.2 3.2-.5-2.3.2-5.4-2.2-6.8-3.7-.5-5.4 4.5-9.1 3.9h-5.2c-.5-2.9-1.4-6.6 1.4-8.7 2.3-.4 4.6-.4 7-.6-3.7-1.6-7.3-3.2-10.3-5.9 1.6-2.9 4.5-6.5 8.2-4.5 2.9 2.3 4.9 5.6 8.2 7.4-1-2.2-2.2-4.2-2.9-6.5z"/><path class="st3" d="M555 549.9c-2-5 .1-12 5.6-13.7 6.4-1.7 13.3 1.3 17.5 6.3 6.7 7.8 8.1 18.7 6.2 28.5 2-1.6 3.7-3.6 6.2-4.4 2 .3 4 1 5.9 1.6-2.5 2.6-5.5 5.2-6.5 8.9-.9 2.7-.2 5.5.3 8.2-2.9 1-6 2.1-7.9 4.8-5.3 6.5-6.7 16.3-14.9 20.1-7 3.5-14.7.7-21.5-1.6.9 2.9 1.7 6 3.8 8.3 3.1 3.4 7.3 5.6 11.2 8-4.7 4.7-8.4 10.1-12.6 15.2-2.5 3.2-6.1 5.2-9.4 7.6-1.5-.1-3-.3-4.5-.4.3-1.2.7-2.5 1-3.7-2-.2-4.3-.8-5.9.8-2.6 1.7-3 5.1-4.4 7.7-2.8.4-5.8.5-8.2 2.1-.2-2.3-1-4.9.3-7 1.7-2.5 4.2-4.4 6.2-6.7-2.4 0-4.7.9-7 1.4-2.2-.6-4.2-1.7-6.4-2.6 2-2.5 3.9-5.6 7.3-6.3 3-1.1 5.8.8 8.4 2.1-1.7-2-3.3-4.1-4.5-6.4-.3-.4-.8-1.3-1.1-1.7 3.5-1.3 7.8-2.5 10.8.4.9 2.7.7 6 2.9 8.2 1.3 1.3 3.1 2.6 5 2.2 3.5-2.1 5-6.1 6.6-9.7-5.3-6-13.2-8.2-19.6-12.6-4.2-2.7-7.3-7.3-7.5-12.4.1-3.6 2.4-6.9 5.8-8.2 3.6-1.8 7.7-.1 11.4.5-3.4-3.6-7.4-6.6-12-8.6-3.8-1.8-8.1-2.8-11.5-5.4-4.5-3.6-6.3-10-4.7-15.4 4.7-1.5 10.1.7 14.3-2.7 4.5 5.8 8.4 12.3 15 16 1.3-1.9 2.7-3.9 4.1-5.7 4.2 8.1.9 17.8 5 25.9 2.7 5.3 8.5 9.3 14.6 8.6 7.3-.7 12.9-7.3 14.7-14.1 1.1-3.5-1.7-8.1-5.7-7.7-3.2 1-5.4 3.9-7.9 5.9.5-4.1.4-9 3.7-12.1 2.7-1.4 6-1.4 8.5-3.2-1.5-1.9-3.6-3.2-5.6-4.6 3.4.5 6.8 1 10.2 1.7 3.1-7.3 4.4-16 .5-23.4-2-4.3-6.1-7.1-10.4-8.8-.5.6-1.7 1.7-2.2 2.3 3.1 3.1 7.3 5.7 8.5 10.2.7 2.8-1.1 5.2-3.6 6.2-.9 5.3-3.8 9.8-7.6 13.6.1-4.4.1-9.1-1.9-13.2-1.3-4.2-4.4-7.3-6.5-11z"/><path class="st3" d="M456.3 555c2.6-2.1 5.8-5.2 9.3-3.2 4.7 1.5 4.2 7.2 6.5 10.5 9.4 5.3 20.9 5.3 31.3 3.4-.3 5.8.9 11.9 5 16.3-6.3-2.1-12.9-3.1-18.8-6.4-2.2-1.1-4.5-2.8-7.1-2.4-3.5.4-6.7 2-10 3.2-.3-2.9-.9-6.2-4.1-7.1-1.5 1.9-2 4.3-3.1 6.4-1.4 1.2-3.2 2-4.8 2.9-1.2-1.5-2.8-2.8-3.4-4.7.3-1.4.9-2.8 1.3-4.2-2.7.4-5.4.6-8.1.8.4-3.1-.9-7.6 2.4-9.5 3-1.3 6.3-.3 9.5-.2-1.9-1.8-3.9-3.8-5.9-5.8zM496.4 596c-1.1-5.1 4-10.5 9.1-9.8 6.1.6 10.7 5.4 16.9 6-8 3-9 13.6-4.4 19.9-9.2-1.3-17.4 3.6-25 7.9-.3-1.5-.5-3.1-1-4.6-1.8-.9-3.8-.2-5.7-.2-1.7.1-3.7-.1-4.9 1.5-2.3 2.4-5 4.3-7.8 6-.7-1.2-1.5-2.5-2.2-3.7.2-2.3 1.3-4.9.1-7.1-2.3-.6-4.5.5-6.6 1.1 0-3-.9-6.6 1.7-8.8 2.4-.2 4.8.1 7.2 0 .3-3.2-3.3-2.7-5.4-3.3 1-2.5 1.8-6.2 5.1-6.2 1.9-.1 4.9-.1 5.4 2.3 1 2.9 2 6.2 5.1 7.5 5.5 2.5 12 1.7 17.7 0-1.5-3-4.1-5.3-5.3-8.5z"/></g></svg>